<svg xmlns="http://www.w3.org/2000/svg" xmlns:xlink="http://www.w3.org/1999/xlink" width="256" height="256" viewBox="0 0 256 256">
  <defs>
    <clipPath id="clip-linkedin">
      <rect width="256" height="256"/>
    </clipPath>
  </defs>
  <g id="linkedin" clip-path="url(#clip-linkedin)">
    <path id="linkedin-icon" d="M107.025,7.025a100,100,0,1,0,100,100A100,100,0,0,0,107.025,7.025ZM80.345,155.37H58.389V84.437H80.345ZM69.262,75.147A13.089,13.089,0,1,1,82.245,62.059,13.037,13.037,0,0,1,69.262,75.147Zm93.363,80.223h-21.85V118.136c0-10.212-3.879-15.913-11.954-15.913-8.788,0-13.38,5.937-13.38,15.913V155.37H94.383V84.437h21.058V93.99a24.739,24.739,0,0,1,21.375-11.717c15.041,0,25.809,9.184,25.809,28.183V155.37Z" transform="translate(20.975 20.975)" fill="#fff"/>
  </g>
</svg>
