<?xml version="1.0" encoding="utf-8"?>
<!-- Generator: Adobe Illustrator 18.0.0, SVG Export Plug-In . SVG Version: 6.00 Build 0)  -->
<!DOCTYPE svg PUBLIC "-//W3C//DTD SVG 1.1//EN" "http://www.w3.org/Graphics/SVG/1.1/DTD/svg11.dtd">
<svg version="1.1" id="Layer_1" xmlns="http://www.w3.org/2000/svg" xmlns:xlink="http://www.w3.org/1999/xlink" x="0px" y="0px"
	 viewBox="0 0 512 512" enable-background="new 0 0 512 512" xml:space="preserve">
<g>
	<path fill="#FFFFFF" d="M146.3,475.4c-20.3,0-39.3-3.8-57.1-11.4c-17.8-7.6-33.3-18-46.5-31.3c-13.3-13.3-23.7-28.8-31.3-46.5
		C3.8,368.4,0,349.4,0,329.1h74.9c0,9.7,1.8,19,5.6,27.8c3.7,8.8,8.8,16.4,15.2,22.8c6.4,6.4,14,11.5,22.8,15.2
		c8.8,3.7,18,5.6,27.8,5.6c9.7,0,19-1.9,27.8-5.6c8.8-3.7,16.4-8.8,22.8-15.2c6.4-6.4,11.5-14,15.2-22.8c3.7-8.8,5.6-18,5.6-27.8
		V311c-21.9,12.1-45.6,18.1-71.4,18.1c-20.3,0-39.3-3.8-57.1-11.4c-17.8-7.6-33.3-18-46.5-31.3c-13.3-13.3-23.7-28.8-31.3-46.5
		C3.8,222.2,0,203.1,0,182.9c0-20.3,3.8-39.3,11.4-57.1c7.6-17.7,18-33.3,31.3-46.5C56,66,71.5,55.6,89.2,48
		c17.7-7.6,36.8-11.4,57.1-11.4c20.3,0,39.3,3.8,57.1,11.4c17.7,7.6,33.3,18,46.5,31.3c13.3,13.3,23.7,28.8,31.3,46.5
		c7.6,17.8,11.4,36.8,11.4,57.1v146.3c0,20.3-3.8,39.3-11.4,57.1c-7.6,17.7-18,33.3-31.3,46.5c-13.3,13.3-28.8,23.7-46.5,31.3
		C185.6,471.6,166.6,475.4,146.3,475.4z M146.3,254.2c9.4,0,18.3-1.8,26.9-5.3c8.6-3.5,16.1-8.4,22.5-14.6
		c6.4-6.2,11.6-13.6,15.5-21.9c3.9-8.4,6-17.3,6.4-26.6v-2.9c0-9.7-1.9-19-5.6-27.8c-3.7-8.8-8.8-16.4-15.2-22.8
		c-6.4-6.4-14-11.5-22.8-15.2c-8.8-3.7-18-5.6-27.8-5.6c-9.8,0-19,1.9-27.8,5.6c-8.8,3.7-16.4,8.8-22.8,15.2s-11.5,14-15.2,22.8
		c-3.7,8.8-5.6,18-5.6,27.8c0,9.8,1.8,19,5.6,27.8c3.7,8.8,8.8,16.4,15.2,22.8c6.4,6.4,14,11.5,22.8,15.2
		C127.3,252.4,136.5,254.2,146.3,254.2z"/>
	<path fill="#FFFFFF" d="M437.1,182.9c0-9.7-1.9-19-5.6-27.8c-3.7-8.8-8.8-16.4-15.2-22.8c-6.4-6.4-14-11.5-22.8-15.2
		c-8.8-3.7-18-5.6-27.8-5.6c-9.8,0-19,1.9-27.8,5.6c-8.8,3.7-16.4,8.8-22.8,15.2s-11.5,14-15.2,22.8c-3.7,8.8-7,18-7,27.8
		l-0.3,146.3h-72.7l0.6-145.7c0-20.3,2.8-39.8,10.4-57.6c7.6-17.7,18-33.3,31.3-46.5C275.4,66,290.9,55.6,308.7,48
		c17.7-7.6,36.8-11.4,57.1-11.4c20.3,0,39.3,3.8,57.1,11.4c17.7,7.6,33.3,18,46.5,31.3c13.3,13.3,23.7,28.8,31.3,46.5
		c7.6,17.8,11.4,36.8,11.4,57.1H437.1z"/>
	<rect x="262.7" y="182.9" fill="#FFFFFF" width="8.8" height="27.6"/>
</g>
</svg>
